<svg xmlns="http://www.w3.org/2000/svg" viewBox="-20 -20 1040 808"><path fill="#101a2b" fill-rule="evenodd" stroke="#101a2b" stroke-width="2" stroke-linejoin="round" d="M419 94L440 92L457 95L466 104L474 106L483 101L488 101L490 103L494 105L501 104L505 106L505 109L505 111L510 118L519 126L526 128L536 122L540 122L541 120L542 116L549 112L560 108L566 104L568 101L572 101L576 101L579 100L580 98L583 96L585 95L588 96L595 101L604 110L610 114L612 114L616 111L620 106L621 99L619 90L620 82L625 76L635 73L648 72L656 72L660 75L664 77L669 77L674 74L678 67L678 59L674 48L675 45L677 44L682 40L690 32L697 22L703 10L712 3L722 0L734 3L748 13L753 24L750 38L749 46L752 47L757 47L764 44L768 44L770 46L770 50L768 56L765 72L763 86L762 100L760 113L763 122L767 136L771 146L776 149L781 150L786 149L795 143L810 132L824 125L845 121L852 109L862 101L884 89L895 84L902 83L911 86L913 86L915 87L919 88L920 92L919 95L914 99L912 101L914 103L921 104L935 99L944 97L950 95L952 92L956 88L963 88L969 90L975 91L984 90L989 93L996 99L999 103L997 104L992 102L990 99L985 101L977 103L964 110L964 112L973 119L975 121L968 125L952 132L941 138L938 138L932 136L922 133L920 133L897 133L877 135L868 136L853 137L843 138L836 140L829 143L822 145L817 146L810 149L806 154L794 163L787 167L784 171L780 172L773 171L768 176L762 183L752 193L746 198L743 205L745 208L754 213L758 218L760 222L764 232L766 242L770 246L771 254L772 258L770 261L768 265L768 268L770 272L772 275L773 277L772 280L768 284L766 288L762 296L755 300L750 304L746 311L738 320L735 327L731 331L728 333L729 336L732 341L737 346L736 354L736 360L736 367L734 373L719 379L706 382L689 382L683 381L678 379L660 373L653 377L651 386L664 401L670 410L676 424L680 431L679 438L667 445L655 453L640 454L631 457L626 460L623 476L619 482L619 489L616 497L611 502L608 510L609 526L611 552L604 560L597 569L589 575L582 578L576 577L571 571L568 567L563 564L558 564L552 568L544 566L537 563L533 564L531 567L523 574L504 585L496 586L492 589L494 593L497 597L503 599L503 602L498 605L494 608L484 612L472 613L460 611L454 606L447 606L440 609L434 615L426 628L424 630L422 632L417 635L410 639L407 648L403 665L404 674L404 689L402 700L399 707L400 712L405 719L403 723L399 728L395 730L380 735L360 741L346 746L326 752L320 754L308 754L301 753L293 753L280 753L271 755L262 758L256 762L252 766L251 768L242 765L214 759L138 766L131 765L105 756L72 745L51 737L25 728L43 705L59 685L74 665L90 646L92 639L92 625L88 607L81 599L60 596L43 593L25 591L23 590L21 576L22 569L21 557L21 548L24 533L24 526L15 496L11 480L6 463L5 457L5 450L16 435L19 431L26 423L30 419L29 417L22 415L12 415L6 412L2 408L0 402L3 391L0 369L6 359L11 351L28 350L22 342L19 337L17 336L17 334L17 331L22 331L25 328L30 324L32 322L33 317L35 314L38 310L41 305L40 299L43 293L44 288L46 285L44 279L43 275L43 270L45 268L49 266L49 262L51 257L53 253L55 249L55 246L54 240L60 240L62 242L65 247L73 254L79 256L86 257L94 256L101 255L104 255L111 261L120 268L123 272L124 277L126 278L132 273L137 271L142 272L147 273L153 271L155 270L165 263L173 258L178 255L180 245L183 239L186 235L185 231L183 228L182 223L183 221L187 220L195 220L210 215L223 211L234 207L240 206L245 207L247 206L247 202L250 198L257 195L269 189L279 179L283 172L286 161L291 145L296 126L298 118L301 112L310 107L320 103L334 102L352 102L356 92L358 84L361 79L365 76L376 80L390 88L407 92L416 94L419 94Z"/></svg>
