<svg xmlns="http://www.w3.org/2000/svg" viewBox="-20 -20 510 1040"><path fill="#101a2b" fill-rule="evenodd" stroke="#101a2b" stroke-width="2" stroke-linejoin="round" d="M466 585L466 589L462 615L461 625L460 641L460 661L469 677L470 685L466 693L449 702L427 715L408 727L387 740L381 748L371 754L362 761L360 767L354 779L346 788L327 792L323 795L314 809L310 815L304 826L311 856L319 887L321 900L321 911L316 922L306 939L298 951L283 972L279 978L269 984L249 993L235 1000L228 967L222 938L217 915L208 874L201 839L193 804L187 773L180 741L177 736L157 721L138 707L118 692L97 675L94 653L83 621L72 603L67 598L44 586L31 578L27 573L25 559L15 533L4 510L0 493L0 473L2 458L7 452L29 434L40 412L53 404L64 398L73 390L81 379L87 366L88 353L91 332L95 317L104 301L100 287L95 272L97 247L95 237L91 228L87 216L87 207L91 181L94 162L99 137L97 130L94 125L83 119L82 115L85 112L101 100L110 82L117 78L129 71L128 64L126 57L154 48L182 26L191 21L255 0L263 1L272 4L270 12L266 18L271 29L279 22L277 18L277 12L290 12L301 12L314 19L313 43L330 67L325 79L339 86L351 77L358 65L380 58L402 40L414 38L416 52L422 66L414 70L404 84L384 119L366 129L352 143L348 153L347 164L350 184L360 204L371 217L382 220L408 240L407 251L411 265L412 282L421 295L402 324L392 345L371 374L353 393L314 421L305 430L298 440L296 450L297 462L309 491L327 508L344 517L374 513L373 525L375 538L387 537L396 535L402 522L417 531L425 558L437 567L439 570L435 572L431 575L435 578L447 581L454 579L466 585ZM440 364L422 374L425 365L437 354L440 357L440 364ZM402 509L399 510L394 513L391 514L382 510L379 510L375 507L376 490L378 485L398 485L409 495L411 497L412 500L407 505L402 509Z"/></svg>
